<?xml version="1.0" encoding="UTF-8"?>
<svg width="1920px" height="1080px" viewBox="0 0 1920 1080" version="1.1" xmlns="http://www.w3.org/2000/svg" xmlns:xlink="http://www.w3.org/1999/xlink">
    <title>scorecard-quality-kit</title>
    <defs>
        <polygon id="path-1" points="16.5 0 33 11.6666667 29.7 11.6666667 29.7 25 21.45 25 21.45 16.6666667 11.55 16.6666667 11.55 25 3.3 25 3.3 11.6666667 0 11.6666667"></polygon>
        <filter x="-3.0%" y="-4.0%" width="106.1%" height="108.0%" filterUnits="objectBoundingBox" id="filter-2">
            <feGaussianBlur stdDeviation="0.5" in="SourceAlpha" result="shadowBlurInner1"></feGaussianBlur>
            <feOffset dx="1" dy="1" in="shadowBlurInner1" result="shadowOffsetInner1"></feOffset>
            <feComposite in="shadowOffsetInner1" in2="SourceAlpha" operator="arithmetic" k2="-1" k3="1" result="shadowInnerInner1"></feComposite>
            <feColorMatrix values="0 0 0 0 0   0 0 0 0 0   0 0 0 0 0  0 0 0 0.05 0" type="matrix" in="shadowInnerInner1"></feColorMatrix>
        </filter>
        <filter color-interpolation-filters="auto" id="filter-3">
            <feColorMatrix in="SourceGraphic" type="matrix" values="0 0 0 0 0.968627 0 0 0 0 0.576471 0 0 0 0 0.117647 0 0 0 1.000000 0"></feColorMatrix>
        </filter>
        <filter color-interpolation-filters="auto" id="filter-4">
            <feColorMatrix in="SourceGraphic" type="matrix" values="0 0 0 0 0.968627 0 0 0 0 0.576471 0 0 0 0 0.117647 0 0 0 1.000000 0"></feColorMatrix>
        </filter>
        <filter color-interpolation-filters="auto" id="filter-5">
            <feColorMatrix in="SourceGraphic" type="matrix" values="0 0 0 0 0.968627 0 0 0 0 0.576471 0 0 0 0 0.117647 0 0 0 1.000000 0"></feColorMatrix>
        </filter>
        <filter color-interpolation-filters="auto" id="filter-6">
            <feColorMatrix in="SourceGraphic" type="matrix" values="0 0 0 0 0.968627 0 0 0 0 0.576471 0 0 0 0 0.117647 0 0 0 1.000000 0"></feColorMatrix>
        </filter>
        <filter color-interpolation-filters="auto" id="filter-7">
            <feColorMatrix in="SourceGraphic" type="matrix" values="0 0 0 0 0.968627 0 0 0 0 0.576471 0 0 0 0 0.117647 0 0 0 1.000000 0"></feColorMatrix>
        </filter>
        <filter color-interpolation-filters="auto" id="filter-8">
            <feColorMatrix in="SourceGraphic" type="matrix" values="0 0 0 0 0.968627 0 0 0 0 0.576471 0 0 0 0 0.117647 0 0 0 1.000000 0"></feColorMatrix>
        </filter>
        <filter color-interpolation-filters="auto" id="filter-9">
            <feColorMatrix in="SourceGraphic" type="matrix" values="0 0 0 0 0.968627 0 0 0 0 0.576471 0 0 0 0 0.117647 0 0 0 1.000000 0"></feColorMatrix>
        </filter>
        <filter color-interpolation-filters="auto" id="filter-10">
            <feColorMatrix in="SourceGraphic" type="matrix" values="0 0 0 0 0.968627 0 0 0 0 0.576471 0 0 0 0 0.117647 0 0 0 1.000000 0"></feColorMatrix>
        </filter>
        <filter color-interpolation-filters="auto" id="filter-11">
            <feColorMatrix in="SourceGraphic" type="matrix" values="0 0 0 0 0.968627 0 0 0 0 0.576471 0 0 0 0 0.117647 0 0 0 1.000000 0"></feColorMatrix>
        </filter>
    </defs>
    <g id="scorecard-quality-kit" stroke="none" stroke-width="1" fill="none" fill-rule="evenodd">
        <rect fill="#FFFFFF" x="0" y="0" width="1920" height="1080"></rect>
        <g id="trees-icon-label" transform="translate(361.000000, 166.500000)">
            <path d="M146.96,52.0642857 L146.96,41.6642857 L151.24,41.6642857 C157,41.6642857 160.96,39.1042857 160.96,33.5442857 C160.96,27.7842857 156.96,25.8242857 151.08,25.8242857 L143.6,25.8242857 L143.6,52.0642857 L146.96,52.0642857 Z M150.84,38.9442857 L146.96,38.9442857 L146.96,28.5442857 L150.68,28.5442857 C155.28,28.5442857 157.6,29.7842857 157.6,33.5442857 C157.6,37.2642857 155.4,38.9442857 150.84,38.9442857 Z M170.44,52.5442857 C172.88,52.5442857 175,51.3042857 176.84,49.7442857 L176.96,49.7442857 L177.28,52.0642857 L180,52.0642857 L180,40.1042857 C180,35.3042857 177.96,32.1442857 173.24,32.1442857 C170.12,32.1442857 167.4,33.4642857 165.6,34.6642857 L166.88,36.9042857 C168.4,35.9042857 170.44,34.9042857 172.68,34.9042857 C175.84,34.9042857 176.64,37.2642857 176.68,39.7042857 C168.36,40.6242857 164.76,42.7042857 164.76,47.0242857 C164.76,50.5442857 167.2,52.5442857 170.44,52.5442857 Z M171.36,49.8242857 C169.48,49.8242857 168,48.9842857 168,46.8242857 C168,44.3042857 170.12,42.8242857 176.68,42.0642857 L176.68,47.3442857 C174.8,48.9842857 173.24,49.8242857 171.36,49.8242857 Z M194.16,52.5442857 C198.92,52.5442857 202.72,48.6242857 202.72,42.4242857 C202.72,36.7442857 199.52,33.3442857 194.92,33.3442857 C192.48,33.3442857 190.08,34.4642857 188.36,36.5842857 C188.96,28.5842857 191.64,28.0642857 197.88,27.1442857 C199.52,26.9042857 200.88,26.5442857 201.92,25.8642857 L201.24,22.8642857 C200.04,23.4242857 199.36,23.6242857 197.2,23.9442857 C189.8,25.0642857 185,27.1442857 185,40.2642857 C185,48.1042857 188.36,52.5442857 194.16,52.5442857 Z M194.16,49.7842857 C190.2,49.7842857 188.2,46.5042857 188.2,40.9042857 L188.2,39.3842857 L188.2,39.3842857 C190.16,36.7442857 192.2,35.9042857 194.08,35.9042857 C197.44,35.9042857 199.28,38.4242857 199.28,42.4242857 C199.28,46.8242857 197.16,49.7842857 194.16,49.7842857 Z M215.48,52.5442857 C220.24,52.5442857 224.52,48.8242857 224.52,42.3842857 C224.52,35.8642857 220.24,32.1442857 215.48,32.1442857 C210.72,32.1442857 206.48,35.8642857 206.48,42.3842857 C206.48,48.8242857 210.72,52.5442857 215.48,52.5442857 Z M215.48,49.7842857 C212.16,49.7842857 209.92,46.8242857 209.92,42.3842857 C209.92,37.9042857 212.16,34.9042857 215.48,34.9042857 C218.84,34.9042857 221.08,37.9042857 221.08,42.3842857 C221.08,46.8242857 218.84,49.7842857 215.48,49.7842857 Z M243.56,52.0642857 L243.56,32.6242857 L240.24,32.6242857 L240.24,41.6642857 C239.12,41.9042857 238.24,42.0242857 237.08,42.0242857 C233.56,42.0242857 232,40.8242857 232,37.9442857 L232,32.6242857 L228.68,32.6242857 L228.68,37.9442857 C228.68,42.7842857 231.52,44.7442857 236.44,44.7442857 C238.16,44.7442857 238.88,44.5842857 240.24,44.3442857 L240.24,52.0642857 L243.56,52.0642857 Z M253.68,52.0642857 L260.6,41.1042857 C261.36,39.9042857 262.36,38.1442857 263.12,36.6642857 L263.28,36.6642857 C263.08,39.4642857 262.96,41.8642857 262.96,43.9442857 L262.96,52.0642857 L266.12,52.0642857 L266.12,32.6242857 L262.6,32.6242857 L255.64,43.6242857 C254.88,44.8242857 253.88,46.6242857 253.12,48.0242857 L252.96,48.0242857 C253.16,45.2642857 253.32,42.8242857 253.32,40.7442857 L253.32,32.6242857 L250.12,32.6242857 L250.12,52.0642857 L253.68,52.0642857 Z M280.8,29.1442857 C285.28,29.1442857 286.92,26.1442857 287.08,23.0242857 L284.36,23.0242857 C284.28,25.3042857 283.44,27.1842857 280.8,27.1842857 C278.16,27.1842857 277.32,25.3042857 277.24,23.0242857 L274.52,23.0242857 C274.68,26.1442857 276.32,29.1442857 280.8,29.1442857 Z M276.24,52.0642857 L283.16,41.1042857 C283.92,39.9042857 284.92,38.1442857 285.68,36.6642857 L285.84,36.6642857 C285.64,39.4642857 285.52,41.8642857 285.52,43.9442857 L285.52,52.0642857 L288.68,52.0642857 L288.68,32.6242857 L285.16,32.6242857 L278.2,43.6242857 C277.44,44.8242857 276.44,46.6242857 275.68,48.0242857 L275.52,48.0242857 C275.72,45.2642857 275.88,42.8242857 275.88,40.7442857 L275.88,32.6242857 L272.68,32.6242857 L272.68,52.0642857 L276.24,52.0642857 Z M306.56,52.0642857 L306.56,43.3042857 L310.76,43.3042857 L315.84,52.0642857 L319.44,52.0642857 L313.2,41.8242857 L314.84,38.0242857 C315.84,35.7842857 316.64,35.4642857 317.64,35.4642857 C317.92,35.4642857 318.04,35.5042857 318.28,35.5842857 L318.88,32.4642857 C318.56,32.3042857 318.16,32.2242857 317.72,32.2242857 C315.6,32.2242857 314.12,32.8642857 312.56,36.3042857 L310.64,40.6242857 L306.56,40.6242857 L306.56,32.6242857 L303.28,32.6242857 L303.28,52.0642857 L306.56,52.0642857 Z M327.56,52.5442857 C330,52.5442857 332.12,51.3042857 333.96,49.7442857 L334.08,49.7442857 L334.4,52.0642857 L337.12,52.0642857 L337.12,40.1042857 C337.12,35.3042857 335.08,32.1442857 330.36,32.1442857 C327.24,32.1442857 324.52,33.4642857 322.72,34.6642857 L324,36.9042857 C325.52,35.9042857 327.56,34.9042857 329.8,34.9042857 C332.96,34.9042857 333.76,37.2642857 333.8,39.7042857 C325.48,40.6242857 321.88,42.7042857 321.88,47.0242857 C321.88,50.5442857 324.32,52.5442857 327.56,52.5442857 Z M328.48,49.8242857 C326.6,49.8242857 325.12,48.9842857 325.12,46.8242857 C325.12,44.3042857 327.24,42.8242857 333.8,42.0642857 L333.8,47.3442857 C331.92,48.9842857 330.36,49.8242857 328.48,49.8242857 Z M350.88,52.0642857 L350.88,35.3042857 L357.36,35.3042857 L357.36,32.6242857 L341.04,32.6242857 L341.04,35.3042857 L347.56,35.3042857 L347.56,52.0642857 L350.88,52.0642857 Z M366.16,52.5442857 C368.6,52.5442857 370.72,51.3042857 372.56,49.7442857 L372.68,49.7442857 L373,52.0642857 L375.72,52.0642857 L375.72,40.1042857 C375.72,35.3042857 373.68,32.1442857 368.96,32.1442857 C365.84,32.1442857 363.12,33.4642857 361.32,34.6642857 L362.6,36.9042857 C364.12,35.9042857 366.16,34.9042857 368.4,34.9042857 C371.56,34.9042857 372.36,37.2642857 372.4,39.7042857 C364.08,40.6242857 360.48,42.7042857 360.48,47.0242857 C360.48,50.5442857 362.92,52.5442857 366.16,52.5442857 Z M367.08,49.8242857 C365.2,49.8242857 363.72,48.9842857 363.72,46.8242857 C363.72,44.3042857 365.84,42.8242857 372.4,42.0642857 L372.4,47.3442857 C370.52,48.9842857 368.96,49.8242857 367.08,49.8242857 Z M380.8,52.4242857 C383.64,52.4242857 385.4,50.3042857 385.96,46.0642857 C386.4,42.5042857 386.8,38.9042857 387.24,35.3042857 L393.24,35.3042857 L393.24,52.0642857 L396.56,52.0642857 L396.56,32.6242857 L384.6,32.6242857 C384.12,36.8242857 383.64,41.0242857 383.12,45.2242857 C382.76,47.9842857 381.88,49.2242857 380.52,49.2242857 C380.16,49.2242857 379.88,49.1442857 379.64,49.0642857 L379,52.1042857 C379.56,52.3442857 380.04,52.4242857 380.8,52.4242857 Z M410.68,52.5442857 C415.44,52.5442857 419.72,48.8242857 419.72,42.3842857 C419.72,35.8642857 415.44,32.1442857 410.68,32.1442857 C405.92,32.1442857 401.68,35.8642857 401.68,42.3842857 C401.68,48.8242857 405.92,52.5442857 410.68,52.5442857 Z M410.68,49.7842857 C407.36,49.7842857 405.12,46.8242857 405.12,42.3842857 C405.12,37.9042857 407.36,34.9042857 410.68,34.9042857 C414.04,34.9042857 416.28,37.9042857 416.28,42.3842857 C416.28,46.8242857 414.04,49.7842857 410.68,49.7842857 Z M428.12,52.0642857 L428.12,35.3042857 L436.92,35.3042857 L436.92,32.6242857 L424.8,32.6242857 L424.8,52.0642857 L428.12,52.0642857 Z" id="Рабочийкаталог" fill="#333333" fill-rule="nonzero"></path>
            <g id="folder">
                <path d="M39.1952339,1.36598157 L43.8047661,6.63401843 C44.5643185,7.50207827 45.6616226,8 46.8150729,8 L92,8 C94.209139,8 96,9.790861 96,12 L96,70 L96,70 L4,70 C1.790861,70 -3.72626139e-15,68.209139 0,66 L0,4 C-2.705415e-16,1.790861 1.790861,2.18216909e-15 4,0 L36.1849271,0 C37.3383774,-1.10006381e-15 38.4356815,0.497921729 39.1952339,1.36598157 Z" id="Path" fill="#FCA65C"></path>
                <path d="M58.1952339,14.3659816 L62.8047661,19.6340184 C63.5643185,20.5020783 64.6616226,21 65.8150729,21 L96.1538462,21 C98.3629852,21 100.153846,22.790861 100.153846,25 L100.153846,70 L100.153846,70 L12,70 C9.790861,70 8,68.209139 8,66 L8,17 C8,14.790861 9.790861,13 12,13 L55.1849271,13 C56.3383774,13 57.4356815,13.4979217 58.1952339,14.3659816 Z" id="Path" fill="#73B0DE" transform="translate(54.076923, 41.500000) scale(-1, 1) translate(-54.076923, -41.500000) "></path>
                <path d="M9,58 L9,70 L4,70 L4.19964034,69.9951047 C6.31603153,69.8910789 8,68.1421954 8,66 L8,66 L8,58 L9,58 Z" id="Combined-Shape" fill="#73B0DE"></path>
                <g id="Path" transform="translate(37.000000, 29.000000)">
                    <use fill="#61A2D3" fill-rule="evenodd" xlink:href="#path-1"></use>
                    <use fill="black" fill-opacity="1" filter="url(#filter-2)" xlink:href="#path-1"></use>
                </g>
            </g>
        </g>
        <g id="trees-icon-label" transform="translate(523.000000, 297.500000)">
            <path d="M146.76,52.5442857 C147.6,52.5442857 148.2,52.4242857 148.68,52.1842857 L148.24,49.7042857 C147.92,49.7842857 147.76,49.7842857 147.56,49.7842857 C147.04,49.7842857 146.6,49.4242857 146.6,48.3842857 L146.6,23.5842857 L143.28,23.5842857 L143.28,48.1442857 C143.28,50.9442857 144.28,52.5442857 146.76,52.5442857 Z M155.16,28.6242857 C156.44,28.6242857 157.36,27.7842857 157.36,26.4642857 C157.36,25.1842857 156.44,24.3042857 155.16,24.3042857 C153.88,24.3042857 152.96,25.1842857 152.96,26.4642857 C152.96,27.7842857 153.88,28.6242857 155.16,28.6242857 Z M156.8,52.0642857 L156.8,32.6242857 L153.48,32.6242857 L153.48,52.0642857 L156.8,52.0642857 Z M171.96,52.5442857 C176.4,52.5442857 180.4,48.6642857 180.4,42.0242857 C180.4,36.0242857 177.68,32.1442857 172.68,32.1442857 C170.52,32.1442857 168.36,33.3042857 166.56,34.8242857 L166.68,31.3442857 L166.68,23.5842857 L163.36,23.5842857 L163.36,52.0642857 L166,52.0642857 L166.32,50.0642857 L166.44,50.0642857 C168.16,51.6242857 170.16,52.5442857 171.96,52.5442857 Z M171.4,49.7442857 C170.12,49.7442857 168.36,49.2242857 166.68,47.7442857 L166.68,37.5842857 C168.52,35.8242857 170.2,34.9442857 171.84,34.9442857 C175.48,34.9442857 176.96,37.7842857 176.96,42.0642857 C176.96,46.8642857 174.6,49.7442857 171.4,49.7442857 Z M190.6,52.5442857 C195.2,52.5442857 197.72,49.9042857 197.72,46.7442857 C197.72,43.2242857 194.8,41.9042857 191.76,40.8242857 C189.32,39.9842857 187.64,39.2642857 187.64,37.5042857 C187.64,36.0642857 188.72,34.7042857 191.2,34.7042857 C192.92,34.7042857 194.32,35.2642857 195.68,36.2642857 L197.2,34.3442857 C195.68,33.0642857 193.6,32.1442857 191.16,32.1442857 C186.92,32.1442857 184.44,34.5442857 184.44,37.6642857 C184.44,40.8642857 187.24,42.2642857 190.16,43.3042857 L190.598839,43.4651509 C192.6384,44.2214413 194.52,45.077619 194.52,46.9442857 C194.52,48.6242857 193.28,49.9442857 190.72,49.9442857 C188.32,49.9442857 186.56,49.2242857 184.88,47.8242857 L183.36,49.7442857 C185.16,51.5042857 187.76,52.5442857 190.6,52.5442857 Z" id="libs" fill="#333333" fill-rule="nonzero"></path>
            <g id="folder">
                <path d="M39.1952339,1.36598157 L43.8047661,6.63401843 C44.5643185,7.50207827 45.6616226,8 46.8150729,8 L92,8 C94.209139,8 96,9.790861 96,12 L96,70 L96,70 L4,70 C1.790861,70 -3.72626139e-15,68.209139 0,66 L0,4 C-2.705415e-16,1.790861 1.790861,2.18216909e-15 4,0 L36.1849271,0 C37.3383774,-1.10006381e-15 38.4356815,0.497921729 39.1952339,1.36598157 Z" id="Path" fill="#FCA65C"></path>
                <path d="M58.1952339,14.3659816 L62.8047661,19.6340184 C63.5643185,20.5020783 64.6616226,21 65.8150729,21 L96.1538462,21 C98.3629852,21 100.153846,22.790861 100.153846,25 L100.153846,70 L100.153846,70 L12,70 C9.790861,70 8,68.209139 8,66 L8,17 C8,14.790861 9.790861,13 12,13 L55.1849271,13 C56.3383774,13 57.4356815,13.4979217 58.1952339,14.3659816 Z" id="Path" fill="#73B0DE" transform="translate(54.076923, 41.500000) scale(-1, 1) translate(-54.076923, -41.500000) "></path>
                <path d="M9,58 L9,70 L4,70 L4.19964034,69.9951047 C6.31603153,69.8910789 8,68.1421954 8,66 L8,66 L8,58 L9,58 Z" id="Combined-Shape" fill="#73B0DE"></path>
            </g>
        </g>
        <g id="trees-icon-label" transform="translate(685.000000, 428.500000)">
            <path d="M148.36,52.5442857 C152.96,52.5442857 155.48,49.9042857 155.48,46.7442857 C155.48,43.2242857 152.56,41.9042857 149.52,40.8242857 C147.08,39.9842857 145.4,39.2642857 145.4,37.5042857 C145.4,36.0642857 146.48,34.7042857 148.96,34.7042857 C150.68,34.7042857 152.08,35.2642857 153.44,36.2642857 L154.96,34.3442857 C153.44,33.0642857 151.36,32.1442857 148.92,32.1442857 C144.68,32.1442857 142.2,34.5442857 142.2,37.6642857 C142.2,40.8642857 145,42.2642857 147.92,43.3042857 L148.358839,43.4651509 C150.3984,44.2214413 152.28,45.077619 152.28,46.9442857 C152.28,48.6242857 151.04,49.9442857 148.48,49.9442857 C146.08,49.9442857 144.32,49.2242857 142.64,47.8242857 L141.12,49.7442857 C142.92,51.5042857 145.52,52.5442857 148.36,52.5442857 Z M167.72,52.5442857 C170.04,52.5442857 172.24,51.6642857 174,50.0642857 L172.56,47.9442857 C171.4,48.9842857 169.8,49.7842857 168,49.7842857 C164.44,49.7842857 162.04,46.8242857 162.04,42.3842857 C162.04,37.9042857 164.6,34.9042857 168.12,34.9042857 C169.68,34.9042857 170.92,35.5042857 172,36.5042857 L173.64,34.4242857 C172.28,33.1442857 170.52,32.1442857 167.96,32.1442857 C162.96,32.1442857 158.6,35.8642857 158.6,42.3842857 C158.6,48.8242857 162.56,52.5442857 167.72,52.5442857 Z M185.84,52.5442857 C190.6,52.5442857 194.88,48.8242857 194.88,42.3842857 C194.88,35.8642857 190.6,32.1442857 185.84,32.1442857 C181.08,32.1442857 176.84,35.8642857 176.84,42.3842857 C176.84,48.8242857 181.08,52.5442857 185.84,52.5442857 Z M185.84,49.7842857 C182.52,49.7842857 180.28,46.8242857 180.28,42.3842857 C180.28,37.9042857 182.52,34.9042857 185.84,34.9042857 C189.2,34.9042857 191.44,37.9042857 191.44,42.3842857 C191.44,46.8242857 189.2,49.7842857 185.84,49.7842857 Z M203.28,52.0642857 L203.28,39.5842857 C204.6,36.3042857 206.56,35.1442857 208.2,35.1442857 C208.96,35.1442857 209.4,35.2242857 209.96,35.3842857 L210.68,32.5442857 C210.08,32.2642857 209.48,32.1442857 208.6,32.1442857 C206.44,32.1442857 204.44,33.7042857 203.08,36.1442857 L202.96,36.1442857 L202.68,32.6242857 L199.96,32.6242857 L199.96,52.0642857 L203.28,52.0642857 Z M221.72,52.5442857 C224.4,52.5442857 226.48,51.7442857 228.16,50.5442857 L227,48.4242857 C225.64,49.3442857 224,49.8642857 222.12,49.8642857 C218.44,49.8642857 216,47.2242857 215.72,43.2242857 L228.8,43.2242857 C228.92,42.5842857 228.96,41.9842857 228.96,41.2642857 C228.96,35.6642857 226.12,32.1442857 221.16,32.1442857 C216.72,32.1442857 212.44,36.0242857 212.44,42.3442857 C212.44,48.7842857 216.52,52.5442857 221.72,52.5442857 Z M226,40.6642857 L215.72,40.6642857 C216.12,36.9442857 218.52,34.7842857 221.24,34.7842857 C224.2,34.7842857 226,36.8242857 226,40.6642857 Z M241.4,52.5442857 C243.72,52.5442857 245.92,51.6642857 247.68,50.0642857 L246.24,47.9442857 C245.08,48.9842857 243.48,49.7842857 241.68,49.7842857 C238.12,49.7842857 235.72,46.8242857 235.72,42.3842857 C235.72,37.9042857 238.28,34.9042857 241.8,34.9042857 C243.36,34.9042857 244.6,35.5042857 245.68,36.5042857 L247.32,34.4242857 C245.96,33.1442857 244.2,32.1442857 241.64,32.1442857 C236.64,32.1442857 232.28,35.8642857 232.28,42.3842857 C232.28,48.8242857 236.24,52.5442857 241.4,52.5442857 Z M256.44,52.5442857 C258.88,52.5442857 261,51.3042857 262.84,49.7442857 L262.96,49.7442857 L263.28,52.0642857 L266,52.0642857 L266,40.1042857 C266,35.3042857 263.96,32.1442857 259.24,32.1442857 C256.12,32.1442857 253.4,33.4642857 251.6,34.6642857 L252.88,36.9042857 C254.4,35.9042857 256.44,34.9042857 258.68,34.9042857 C261.84,34.9042857 262.64,37.2642857 262.68,39.7042857 C254.36,40.6242857 250.76,42.7042857 250.76,47.0242857 C250.76,50.5442857 253.2,52.5442857 256.44,52.5442857 Z M257.36,49.8242857 C255.48,49.8242857 254,48.9842857 254,46.8242857 C254,44.3042857 256.12,42.8242857 262.68,42.0642857 L262.68,47.3442857 C260.8,48.9842857 259.24,49.8242857 257.36,49.8242857 Z M275.44,52.0642857 L275.44,39.5842857 C276.76,36.3042857 278.72,35.1442857 280.36,35.1442857 C281.12,35.1442857 281.56,35.2242857 282.12,35.3842857 L282.84,32.5442857 C282.24,32.2642857 281.64,32.1442857 280.76,32.1442857 C278.6,32.1442857 276.6,33.7042857 275.24,36.1442857 L275.12,36.1442857 L274.84,32.6242857 L272.12,32.6242857 L272.12,52.0642857 L275.44,52.0642857 Z M292.68,52.5442857 C294.96,52.5442857 297.04,51.2642857 298.56,49.7842857 L298.68,49.7842857 L298.96,52.0642857 L301.68,52.0642857 L301.68,23.5842857 L298.36,23.5842857 L298.36,31.0642857 L298.52,34.3842857 C296.8,32.9842857 295.32,32.1442857 293.08,32.1442857 C288.64,32.1442857 284.64,36.0642857 284.64,42.3842857 C284.64,48.8642857 287.8,52.5442857 292.68,52.5442857 Z M293.4,49.7442857 C290,49.7442857 288.08,46.9842857 288.08,42.3442857 C288.08,37.9042857 290.56,34.9442857 293.64,34.9442857 C295.24,34.9442857 296.72,35.4642857 298.36,36.9442857 L298.36,47.1042857 C296.76,48.8642857 295.2,49.7442857 293.4,49.7442857 Z M324.48,57.1042857 L324.48,54.9042857 L305.44,54.9042857 L305.44,57.1042857 L324.48,57.1042857 Z M343.88,60.2642857 L343.88,32.6242857 L341.24,32.6242857 L340.92,34.4642857 L340.8,34.4642857 C339.08,32.9442857 337.52,32.1442857 335.28,32.1442857 C330.84,32.1442857 326.84,36.0642857 326.84,42.3842857 C326.84,48.8642857 330,52.5442857 334.88,52.5442857 C337.12,52.5442857 339.16,51.3442857 340.72,49.8242857 L340.56,53.3442857 L340.56,60.2642857 L343.88,60.2642857 Z M335.6,49.7442857 C332.2,49.7442857 330.28,46.9842857 330.28,42.3442857 C330.28,37.9042857 332.76,34.9442857 335.84,34.9442857 C337.44,34.9442857 338.92,35.4642857 340.56,36.9442857 L340.56,47.1042857 C338.96,48.8642857 337.4,49.7442857 335.6,49.7442857 Z M356.12,52.5442857 C358.8,52.5442857 360.72,51.1442857 362.52,49.0242857 L362.64,49.0242857 L362.92,52.0642857 L365.64,52.0642857 L365.64,32.6242857 L362.32,32.6242857 L362.32,46.3842857 C360.52,48.6642857 359.12,49.6642857 357.16,49.6642857 C354.6,49.6642857 353.48,48.1042857 353.48,44.5042857 L353.48,32.6242857 L350.16,32.6242857 L350.16,44.9442857 C350.16,49.9042857 352,52.5442857 356.12,52.5442857 Z M376.68,52.5442857 C379.12,52.5442857 381.24,51.3042857 383.08,49.7442857 L383.2,49.7442857 L383.52,52.0642857 L386.24,52.0642857 L386.24,40.1042857 C386.24,35.3042857 384.2,32.1442857 379.48,32.1442857 C376.36,32.1442857 373.64,33.4642857 371.84,34.6642857 L373.12,36.9042857 C374.64,35.9042857 376.68,34.9042857 378.92,34.9042857 C382.08,34.9042857 382.88,37.2642857 382.92,39.7042857 C374.6,40.6242857 371,42.7042857 371,47.0242857 C371,50.5442857 373.44,52.5442857 376.68,52.5442857 Z M377.6,49.8242857 C375.72,49.8242857 374.24,48.9842857 374.24,46.8242857 C374.24,44.3042857 376.36,42.8242857 382.92,42.0642857 L382.92,47.3442857 C381.04,48.9842857 379.48,49.8242857 377.6,49.8242857 Z M395.84,52.5442857 C396.68,52.5442857 397.28,52.4242857 397.76,52.1842857 L397.32,49.7042857 C397,49.7842857 396.84,49.7842857 396.64,49.7842857 C396.12,49.7842857 395.68,49.4242857 395.68,48.3842857 L395.68,23.5842857 L392.36,23.5842857 L392.36,48.1442857 C392.36,50.9442857 393.36,52.5442857 395.84,52.5442857 Z M404.24,28.6242857 C405.52,28.6242857 406.44,27.7842857 406.44,26.4642857 C406.44,25.1842857 405.52,24.3042857 404.24,24.3042857 C402.96,24.3042857 402.04,25.1842857 402.04,26.4642857 C402.04,27.7842857 402.96,28.6242857 404.24,28.6242857 Z M405.88,52.0642857 L405.88,32.6242857 L402.56,32.6242857 L402.56,52.0642857 L405.88,52.0642857 Z M418.56,52.5442857 C419.88,52.5442857 421.2,52.1842857 422.24,51.7042857 L421.56,49.3442857 C420.76,49.7042857 420.04,49.8242857 419.32,49.8242857 C417.12,49.8242857 416.32,48.4642857 416.32,46.1042857 L416.32,35.3042857 L421.6,35.3042857 L421.6,32.6242857 L416.32,32.6242857 L416.32,26.3842857 L413.56,26.3842857 L413.16,32.6242857 L410.12,32.8242857 L410.12,35.3042857 L413,35.3042857 L413,46.0242857 C413,49.9042857 414.4,52.5442857 418.56,52.5442857 Z M426.36,60.4242857 C430.24,60.4242857 432.28,57.5042857 433.64,53.6642857 L440.96,32.6242857 L437.72,32.6242857 L434.24,43.3442857 C433.72,45.0642857 433.16,47.0642857 432.64,48.8242857 L432.48,48.8242857 C431.84,47.0242857 431.2,45.0242857 430.56,43.3442857 L426.64,32.6242857 L423.2,32.6242857 L431,52.1042857 L430.56,53.5442857 C429.76,55.9442857 428.36,57.6642857 426.2,57.6642857 C425.72,57.6642857 425.24,57.5842857 424.76,57.4242857 L424.04,60.0242857 C424.68,60.2642857 425.44,60.4242857 426.36,60.4242857 Z M460.96,57.1042857 L460.96,54.9042857 L441.92,54.9042857 L441.92,57.1042857 L460.96,57.1042857 Z M468,52.0642857 L468,46.9442857 L471.6,42.7442857 L477.28,52.0642857 L480.88,52.0642857 L473.56,40.4642857 L480.04,32.6242857 L476.32,32.6242857 L468.12,42.7842857 L468,42.7842857 L468,23.5842857 L464.72,23.5842857 L464.72,52.0642857 L468,52.0642857 Z M486.2,28.6242857 C487.48,28.6242857 488.4,27.7842857 488.4,26.4642857 C488.4,25.1842857 487.48,24.3042857 486.2,24.3042857 C484.92,24.3042857 484,25.1842857 484,26.4642857 C484,27.7842857 484.92,28.6242857 486.2,28.6242857 Z M487.84,52.0642857 L487.84,32.6242857 L484.52,32.6242857 L484.52,52.0642857 L487.84,52.0642857 Z M500.52,52.5442857 C501.84,52.5442857 503.16,52.1842857 504.2,51.7042857 L503.52,49.3442857 C502.72,49.7042857 502,49.8242857 501.28,49.8242857 C499.08,49.8242857 498.28,48.4642857 498.28,46.1042857 L498.28,35.3042857 L503.56,35.3042857 L503.56,32.6242857 L498.28,32.6242857 L498.28,26.3842857 L495.52,26.3842857 L495.12,32.6242857 L492.08,32.8242857 L492.08,35.3042857 L494.96,35.3042857 L494.96,46.0242857 C494.96,49.9042857 496.36,52.5442857 500.52,52.5442857 Z" id="scorecard_quality_kit" fill="#333333" fill-rule="nonzero"></path>
            <g id="folder">
                <path d="M39.1952339,1.36598157 L43.8047661,6.63401843 C44.5643185,7.50207827 45.6616226,8 46.8150729,8 L92,8 C94.209139,8 96,9.790861 96,12 L96,70 L96,70 L4,70 C1.790861,70 -3.72626139e-15,68.209139 0,66 L0,4 C-2.705415e-16,1.790861 1.790861,2.18216909e-15 4,0 L36.1849271,0 C37.3383774,-1.10006381e-15 38.4356815,0.497921729 39.1952339,1.36598157 Z" id="Path" fill="#FCA65C"></path>
                <path d="M58.1952339,14.3659816 L62.8047661,19.6340184 C63.5643185,20.5020783 64.6616226,21 65.8150729,21 L96.1538462,21 C98.3629852,21 100.153846,22.790861 100.153846,25 L100.153846,70 L100.153846,70 L12,70 C9.790861,70 8,68.209139 8,66 L8,17 C8,14.790861 9.790861,13 12,13 L55.1849271,13 C56.3383774,13 57.4356815,13.4979217 58.1952339,14.3659816 Z" id="Path" fill="#73B0DE" transform="translate(54.076923, 41.500000) scale(-1, 1) translate(-54.076923, -41.500000) "></path>
                <path d="M9,58 L9,70 L4,70 L4.19964034,69.9951047 C6.31603153,69.8910789 8,68.1421954 8,66 L8,66 L8,58 L9,58 Z" id="Combined-Shape" fill="#73B0DE"></path>
            </g>
        </g>
        <g id="trees-icon-label" transform="translate(847.000000, 559.000000)">
            <path d="M130.76,52.48 C131.6,52.48 132.2,52.36 132.68,52.12 L132.24,49.64 C131.92,49.72 131.76,49.72 131.56,49.72 C131.04,49.72 130.6,49.36 130.6,48.32 L130.6,23.52 L127.28,23.52 L127.28,48.08 C127.28,50.88 128.28,52.48 130.76,52.48 Z M145.04,52.48 C149.8,52.48 154.08,48.76 154.08,42.32 C154.08,35.8 149.8,32.08 145.04,32.08 C140.28,32.08 136.04,35.8 136.04,42.32 C136.04,48.76 140.28,52.48 145.04,52.48 Z M145.04,49.72 C141.72,49.72 139.48,46.76 139.48,42.32 C139.48,37.84 141.72,34.84 145.04,34.84 C148.4,34.84 150.64,37.84 150.64,42.32 C150.64,46.76 148.4,49.72 145.04,49.72 Z M165.72,60.96 C171.76,60.96 175.56,57.84 175.56,54.2 C175.56,51 173.28,49.56 168.76,49.56 L165,49.56 C162.4,49.56 161.6,48.68 161.6,47.48 C161.6,46.4 162.12,45.76 162.84,45.16 C163.72,45.6 164.76,45.84 165.72,45.84 C169.68,45.84 172.84,43.24 172.84,39.08 C172.84,37.44 172.2,36 171.28,35.12 L175.24,35.12 L175.24,32.56 L168.48,32.56 C167.76,32.28 166.8,32.08 165.72,32.08 C161.76,32.08 158.4,34.76 158.4,39 C158.4,41.32 159.64,43.2 160.92,44.24 L160.92,44.4 C159.92,45.08 158.8,46.36 158.8,48 C158.8,49.52 159.56,50.56 160.52,51.16 L160.52,51.32 C158.76,52.52 157.68,54.08 157.68,55.72 C157.68,59.08 160.96,60.96 165.72,60.96 Z M165.72,43.6 C163.48,43.6 161.6,41.84 161.6,39 C161.6,36.16 163.44,34.48 165.72,34.48 C168,34.48 169.84,36.2 169.84,39 C169.84,41.84 167.96,43.6 165.72,43.6 Z M166.2,58.64 C162.68,58.64 160.56,57.36 160.56,55.28 C160.56,54.16 161.16,53 162.56,52 C163.4,52.24 164.32,52.32 165.08,52.32 L168.4,52.32 C170.96,52.32 172.32,52.92 172.32,54.72 C172.32,56.72 169.88,58.64 166.2,58.64 Z M181.04,28.56 C182.32,28.56 183.24,27.72 183.24,26.4 C183.24,25.12 182.32,24.24 181.04,24.24 C179.76,24.24 178.84,25.12 178.84,26.4 C178.84,27.72 179.76,28.56 181.04,28.56 Z M182.68,52 L182.68,32.56 L179.36,32.56 L179.36,52 L182.68,52 Z M192.56,52 L192.56,37.92 C194.48,35.96 195.88,34.96 197.84,34.96 C200.4,34.96 201.52,36.48 201.52,40.12 L201.52,52 L204.84,52 L204.84,39.68 C204.84,34.72 203,32.08 198.88,32.08 C196.2,32.08 194.2,33.52 192.36,35.36 L192.24,35.36 L191.96,32.56 L189.24,32.56 L189.24,52 L192.56,52 Z M218.68,52.48 C223.44,52.48 227.72,48.76 227.72,42.32 C227.72,35.8 223.44,32.08 218.68,32.08 C213.92,32.08 209.68,35.8 209.68,42.32 C209.68,48.76 213.92,52.48 218.68,52.48 Z M218.68,49.72 C215.36,49.72 213.12,46.76 213.12,42.32 C213.12,37.84 215.36,34.84 218.68,34.84 C222.04,34.84 224.28,37.84 224.28,42.32 C224.28,46.76 222.04,49.72 218.68,49.72 Z M236.12,52 L236.12,37.92 C237.92,35.92 239.52,34.96 240.96,34.96 C243.44,34.96 244.56,36.48 244.56,40.12 L244.56,52 L247.88,52 L247.88,37.92 C249.68,35.92 251.24,34.96 252.76,34.96 C255.2,34.96 256.36,36.48 256.36,40.12 L256.36,52 L259.68,52 L259.68,39.68 C259.68,34.72 257.76,32.08 253.76,32.08 C251.4,32.08 249.36,33.6 247.36,35.76 C246.56,33.48 244.96,32.08 241.96,32.08 C239.64,32.08 237.64,33.52 235.92,35.36 L235.8,35.36 L235.52,32.56 L232.8,32.56 L232.8,52 L236.12,52 Z M282.2,57.04 L282.2,54.84 L263.16,54.84 L263.16,57.04 L282.2,57.04 Z M291.04,52.48 C295.64,52.48 298.16,49.84 298.16,46.68 C298.16,43.16 295.24,41.84 292.2,40.76 C289.76,39.92 288.08,39.2 288.08,37.44 C288.08,36 289.16,34.64 291.64,34.64 C293.36,34.64 294.76,35.2 296.12,36.2 L297.64,34.28 C296.12,33 294.04,32.08 291.6,32.08 C287.36,32.08 284.88,34.48 284.88,37.6 C284.88,40.8 287.68,42.2 290.6,43.24 L291.038839,43.4008652 C293.0784,44.1571556 294.96,45.0133333 294.96,46.88 C294.96,48.56 293.72,49.88 291.16,49.88 C288.76,49.88 287,49.16 285.32,47.76 L283.8,49.68 C285.6,51.44 288.2,52.48 291.04,52.48 Z M310.4,52.48 C312.72,52.48 314.92,51.6 316.68,50 L315.24,47.88 C314.08,48.92 312.48,49.72 310.68,49.72 C307.12,49.72 304.72,46.76 304.72,42.32 C304.72,37.84 307.28,34.84 310.8,34.84 C312.36,34.84 313.6,35.44 314.68,36.44 L316.32,34.36 C314.96,33.08 313.2,32.08 310.64,32.08 C305.64,32.08 301.28,35.8 301.28,42.32 C301.28,48.76 305.24,52.48 310.4,52.48 Z M328.52,52.48 C333.28,52.48 337.56,48.76 337.56,42.32 C337.56,35.8 333.28,32.08 328.52,32.08 C323.76,32.08 319.52,35.8 319.52,42.32 C319.52,48.76 323.76,52.48 328.52,52.48 Z M328.52,49.72 C325.2,49.72 322.96,46.76 322.96,42.32 C322.96,37.84 325.2,34.84 328.52,34.84 C331.88,34.84 334.12,37.84 334.12,42.32 C334.12,46.76 331.88,49.72 328.52,49.72 Z M345.96,52 L345.96,39.52 C347.28,36.24 349.24,35.08 350.88,35.08 C351.64,35.08 352.08,35.16 352.64,35.32 L353.36,32.48 C352.76,32.2 352.16,32.08 351.28,32.08 C349.12,32.08 347.12,33.64 345.76,36.08 L345.64,36.08 L345.36,32.56 L342.64,32.56 L342.64,52 L345.96,52 Z M364.4,52.48 C367.08,52.48 369.16,51.68 370.84,50.48 L369.68,48.36 C368.32,49.28 366.68,49.8 364.8,49.8 C361.12,49.8 358.68,47.16 358.4,43.16 L371.48,43.16 C371.6,42.52 371.64,41.92 371.64,41.2 C371.64,35.6 368.8,32.08 363.84,32.08 C359.4,32.08 355.12,35.96 355.12,42.28 C355.12,48.72 359.2,52.48 364.4,52.48 Z M368.68,40.6 L358.4,40.6 C358.8,36.88 361.2,34.72 363.92,34.72 C366.88,34.72 368.68,36.76 368.68,40.6 Z M384.08,52.48 C386.4,52.48 388.6,51.6 390.36,50 L388.92,47.88 C387.76,48.92 386.16,49.72 384.36,49.72 C380.8,49.72 378.4,46.76 378.4,42.32 C378.4,37.84 380.96,34.84 384.48,34.84 C386.04,34.84 387.28,35.44 388.36,36.44 L390,34.36 C388.64,33.08 386.88,32.08 384.32,32.08 C379.32,32.08 374.96,35.8 374.96,42.32 C374.96,48.76 378.92,52.48 384.08,52.48 Z M399.12,52.48 C401.56,52.48 403.68,51.24 405.52,49.68 L405.64,49.68 L405.96,52 L408.68,52 L408.68,40.04 C408.68,35.24 406.64,32.08 401.92,32.08 C398.8,32.08 396.08,33.4 394.28,34.6 L395.56,36.84 C397.08,35.84 399.12,34.84 401.36,34.84 C404.52,34.84 405.32,37.2 405.36,39.64 C397.04,40.56 393.44,42.64 393.44,46.96 C393.44,50.48 395.88,52.48 399.12,52.48 Z M400.04,49.76 C398.16,49.76 396.68,48.92 396.68,46.76 C396.68,44.24 398.8,42.76 405.36,42 L405.36,47.28 C403.48,48.92 401.92,49.76 400.04,49.76 Z M418.12,52 L418.12,39.52 C419.44,36.24 421.4,35.08 423.04,35.08 C423.8,35.08 424.24,35.16 424.8,35.32 L425.52,32.48 C424.92,32.2 424.32,32.08 423.44,32.08 C421.28,32.08 419.28,33.64 417.92,36.08 L417.8,36.08 L417.52,32.56 L414.8,32.56 L414.8,52 L418.12,52 Z M435.36,52.48 C437.64,52.48 439.72,51.2 441.24,49.72 L441.36,49.72 L441.64,52 L444.36,52 L444.36,23.52 L441.04,23.52 L441.04,31 L441.2,34.32 C439.48,32.92 438,32.08 435.76,32.08 C431.32,32.08 427.32,36 427.32,42.32 C427.32,48.8 430.48,52.48 435.36,52.48 Z M436.08,49.68 C432.68,49.68 430.76,46.92 430.76,42.28 C430.76,37.84 433.24,34.88 436.32,34.88 C437.92,34.88 439.4,35.4 441.04,36.88 L441.04,47.04 C439.44,48.8 437.88,49.68 436.08,49.68 Z M467.16,57.04 L467.16,54.84 L448.12,54.84 L448.12,57.04 L467.16,57.04 Z M486.56,60.2 L486.56,32.56 L483.92,32.56 L483.6,34.4 L483.48,34.4 C481.76,32.88 480.2,32.08 477.96,32.08 C473.52,32.08 469.52,36 469.52,42.32 C469.52,48.8 472.68,52.48 477.56,52.48 C479.8,52.48 481.84,51.28 483.4,49.76 L483.24,53.28 L483.24,60.2 L486.56,60.2 Z M478.28,49.68 C474.88,49.68 472.96,46.92 472.96,42.28 C472.96,37.84 475.44,34.88 478.52,34.88 C480.12,34.88 481.6,35.4 483.24,36.88 L483.24,47.04 C481.64,48.8 480.08,49.68 478.28,49.68 Z M498.8,52.48 C501.48,52.48 503.4,51.08 505.2,48.96 L505.32,48.96 L505.6,52 L508.32,52 L508.32,32.56 L505,32.56 L505,46.32 C503.2,48.6 501.8,49.6 499.84,49.6 C497.28,49.6 496.16,48.04 496.16,44.44 L496.16,32.56 L492.84,32.56 L492.84,44.88 C492.84,49.84 494.68,52.48 498.8,52.48 Z M519.36,52.48 C521.8,52.48 523.92,51.24 525.76,49.68 L525.88,49.68 L526.2,52 L528.92,52 L528.92,40.04 C528.92,35.24 526.88,32.08 522.16,32.08 C519.04,32.08 516.32,33.4 514.52,34.6 L515.8,36.84 C517.32,35.84 519.36,34.84 521.6,34.84 C524.76,34.84 525.56,37.2 525.6,39.64 C517.28,40.56 513.68,42.64 513.68,46.96 C513.68,50.48 516.12,52.48 519.36,52.48 Z M520.28,49.76 C518.4,49.76 516.92,48.92 516.92,46.76 C516.92,44.24 519.04,42.76 525.6,42 L525.6,47.28 C523.72,48.92 522.16,49.76 520.28,49.76 Z M538.52,52.48 C539.36,52.48 539.96,52.36 540.44,52.12 L540,49.64 C539.68,49.72 539.52,49.72 539.32,49.72 C538.8,49.72 538.36,49.36 538.36,48.32 L538.36,23.52 L535.04,23.52 L535.04,48.08 C535.04,50.88 536.04,52.48 538.52,52.48 Z M546.92,28.56 C548.2,28.56 549.12,27.72 549.12,26.4 C549.12,25.12 548.2,24.24 546.92,24.24 C545.64,24.24 544.72,25.12 544.72,26.4 C544.72,27.72 545.64,28.56 546.92,28.56 Z M548.56,52 L548.56,32.56 L545.24,32.56 L545.24,52 L548.56,52 Z M561.24,52.48 C562.56,52.48 563.88,52.12 564.92,51.64 L564.24,49.28 C563.44,49.64 562.72,49.76 562,49.76 C559.8,49.76 559,48.4 559,46.04 L559,35.24 L564.28,35.24 L564.28,32.56 L559,32.56 L559,26.32 L556.24,26.32 L555.84,32.56 L552.8,32.76 L552.8,35.24 L555.68,35.24 L555.68,45.96 C555.68,49.84 557.08,52.48 561.24,52.48 Z M569.04,60.36 C572.92,60.36 574.96,57.44 576.32,53.6 L583.64,32.56 L580.4,32.56 L576.92,43.28 C576.4,45 575.84,47 575.32,48.76 L575.16,48.76 C574.52,46.96 573.88,44.96 573.24,43.28 L569.32,32.56 L565.88,32.56 L573.68,52.04 L573.24,53.48 C572.44,55.88 571.04,57.6 568.88,57.6 C568.4,57.6 567.92,57.52 567.44,57.36 L566.72,59.96 C567.36,60.2 568.12,60.36 569.04,60.36 Z M603.64,57.04 L603.64,54.84 L584.6,54.84 L584.6,57.04 L603.64,57.04 Z M610.68,52 L610.68,46.88 L614.28,42.68 L619.96,52 L623.56,52 L616.24,40.4 L622.72,32.56 L619,32.56 L610.8,42.72 L610.68,42.72 L610.68,23.52 L607.4,23.52 L607.4,52 L610.68,52 Z M628.88,28.56 C630.16,28.56 631.08,27.72 631.08,26.4 C631.08,25.12 630.16,24.24 628.88,24.24 C627.6,24.24 626.68,25.12 626.68,26.4 C626.68,27.72 627.6,28.56 628.88,28.56 Z M630.52,52 L630.52,32.56 L627.2,32.56 L627.2,52 L630.52,52 Z M643.2,52.48 C644.52,52.48 645.84,52.12 646.88,51.64 L646.2,49.28 C645.4,49.64 644.68,49.76 643.96,49.76 C641.76,49.76 640.96,48.4 640.96,46.04 L640.96,35.24 L646.24,35.24 L646.24,32.56 L640.96,32.56 L640.96,26.32 L638.2,26.32 L637.8,32.56 L634.76,32.76 L634.76,35.24 L637.64,35.24 L637.64,45.96 C637.64,49.84 639.04,52.48 643.2,52.48 Z M652.36,52.48 C653.68,52.48 654.76,51.44 654.76,49.96 C654.76,48.44 653.68,47.4 652.36,47.4 C651.04,47.4 649.96,48.44 649.96,49.96 C649.96,51.44 651.04,52.48 652.36,52.48 Z M664.12,52.48 C664.96,52.48 665.56,52.36 666.04,52.12 L665.6,49.64 C665.28,49.72 665.12,49.72 664.92,49.72 C664.4,49.72 663.96,49.36 663.96,48.32 L663.96,23.52 L660.64,23.52 L660.64,48.08 C660.64,50.88 661.64,52.48 664.12,52.48 Z M677.4,60.96 C683.44,60.96 687.24,57.84 687.24,54.2 C687.24,51 684.96,49.56 680.44,49.56 L676.68,49.56 C674.08,49.56 673.28,48.68 673.28,47.48 C673.28,46.4 673.8,45.76 674.52,45.16 C675.4,45.6 676.44,45.84 677.4,45.84 C681.36,45.84 684.52,43.24 684.52,39.08 C684.52,37.44 683.88,36 682.96,35.12 L686.92,35.12 L686.92,32.56 L680.16,32.56 C679.44,32.28 678.48,32.08 677.4,32.08 C673.44,32.08 670.08,34.76 670.08,39 C670.08,41.32 671.32,43.2 672.6,44.24 L672.6,44.4 C671.6,45.08 670.48,46.36 670.48,48 C670.48,49.52 671.24,50.56 672.2,51.16 L672.2,51.32 C670.44,52.52 669.36,54.08 669.36,55.72 C669.36,59.08 672.64,60.96 677.4,60.96 Z M677.4,43.6 C675.16,43.6 673.28,41.84 673.28,39 C673.28,36.16 675.12,34.48 677.4,34.48 C679.68,34.48 681.52,36.2 681.52,39 C681.52,41.84 679.64,43.6 677.4,43.6 Z M677.88,58.64 C674.36,58.64 672.24,57.36 672.24,55.28 C672.24,54.16 672.84,53 674.24,52 C675.08,52.24 676,52.32 676.76,52.32 L680.08,52.32 C682.64,52.32 684,52.92 684,54.72 C684,56.72 681.56,58.64 677.88,58.64 Z M694.36,60.2 L694.36,53.64 L694.28,50.24 C696.04,51.64 697.88,52.48 699.64,52.48 C704.08,52.48 708.08,48.6 708.08,42 C708.08,35.96 705.36,32.08 700.36,32.08 C698.12,32.08 695.92,33.32 694.16,34.8 L694.04,34.8 L693.76,32.56 L691.04,32.56 L691.04,60.2 L694.36,60.2 Z M699.08,49.68 C697.8,49.68 696.12,49.16 694.36,47.68 L694.36,37.52 C696.24,35.76 697.88,34.88 699.52,34.88 C703.16,34.88 704.64,37.72 704.64,42 C704.64,46.8 702.28,49.68 699.08,49.68 Z" id="loginom_scorecard_quality_kit.lgp" fill="#333333" fill-rule="nonzero"></path>
            <g id="Group">
                <path d="M64,0 C66.209139,-4.05812251e-16 68,1.790861 68,4 L68,66 C68,68.209139 66.209139,70 64,70 L60,70 C62.209139,70 64,68.209139 64,66 L64,66 L64,4 C64,1.790861 62.209139,-4.05812251e-16 60,0 L60,0 L64,0 Z" id="Combined-Shape" fill="#FCA65C"></path>
                <path d="M72,0 C74.209139,-4.05812251e-16 76,1.790861 76,4 L76,66 C76,68.209139 74.209139,70 72,70 L68,70 C70.209139,70 72,68.209139 72,66 L72,66 L72,4 C72,1.790861 70.209139,-4.05812251e-16 68,0 L68,0 L72,0 Z" id="Combined-Shape" fill="#FCA65C"></path>
                <path d="M80,0 C82.209139,-4.05812251e-16 84,1.790861 84,4 L84,66 C84,68.209139 82.209139,70 80,70 L76,70 C78.209139,70 80,68.209139 80,66 L80,66 L80,4 C80,1.790861 78.209139,-4.05812251e-16 76,0 L76,0 L80,0 Z" id="Combined-Shape" fill="#FCA65C"></path>
                <rect id="Rectangle" fill="#73B0DE" x="0" y="0" width="60" height="70" rx="4"></rect>
                <g transform="translate(12.000000, 22.000000)" fill="#F9F9F9" id="Rectangle">
                    <rect x="0" y="0" width="36" height="2" rx="1"></rect>
                    <rect x="0" y="6" width="36" height="2" rx="1"></rect>
                    <rect x="0" y="12" width="36" height="2" rx="1"></rect>
                    <rect x="0" y="18" width="36" height="2" rx="1"></rect>
                    <rect x="0" y="24" width="25" height="2" rx="1"></rect>
                </g>
            </g>
        </g>
        <g id="trees-icon-label" transform="translate(685.000000, 714.500000)">
            <path d="M148.36,52.5442857 C152.96,52.5442857 155.48,49.9042857 155.48,46.7442857 C155.48,43.2242857 152.56,41.9042857 149.52,40.8242857 C147.08,39.9842857 145.4,39.2642857 145.4,37.5042857 C145.4,36.0642857 146.48,34.7042857 148.96,34.7042857 C150.68,34.7042857 152.08,35.2642857 153.44,36.2642857 L154.96,34.3442857 C153.44,33.0642857 151.36,32.1442857 148.92,32.1442857 C144.68,32.1442857 142.2,34.5442857 142.2,37.6642857 C142.2,40.8642857 145,42.2642857 147.92,43.3042857 L148.358839,43.4651509 C150.3984,44.2214413 152.28,45.077619 152.28,46.9442857 C152.28,48.6242857 151.04,49.9442857 148.48,49.9442857 C146.08,49.9442857 144.32,49.2242857 142.64,47.8242857 L141.12,49.7442857 C142.92,51.5042857 145.52,52.5442857 148.36,52.5442857 Z M161.72,28.6242857 C163,28.6242857 163.92,27.7842857 163.92,26.4642857 C163.92,25.1842857 163,24.3042857 161.72,24.3042857 C160.44,24.3042857 159.52,25.1842857 159.52,26.4642857 C159.52,27.7842857 160.44,28.6242857 161.72,28.6242857 Z M163.36,52.0642857 L163.36,32.6242857 L160.04,32.6242857 L160.04,52.0642857 L163.36,52.0642857 Z M173.4,52.5442857 C174.24,52.5442857 174.84,52.4242857 175.32,52.1842857 L174.88,49.7042857 C174.56,49.7842857 174.4,49.7842857 174.2,49.7842857 C173.68,49.7842857 173.24,49.4242857 173.24,48.3842857 L173.24,23.5842857 L169.92,23.5842857 L169.92,48.1442857 C169.92,50.9442857 170.92,52.5442857 173.4,52.5442857 Z M188.2,52.0642857 L195.08,32.6242857 L191.8,32.6242857 L188.16,43.6242857 C187.56,45.5442857 186.92,47.5042857 186.36,49.3842857 L186.2,49.3842857 C185.6,47.5042857 185,45.5442857 184.4,43.6242857 L180.76,32.6242857 L177.32,32.6242857 L184.32,52.0642857 L188.2,52.0642857 Z M206.68,52.5442857 C209.36,52.5442857 211.44,51.7442857 213.12,50.5442857 L211.96,48.4242857 C210.6,49.3442857 208.96,49.8642857 207.08,49.8642857 C203.4,49.8642857 200.96,47.2242857 200.68,43.2242857 L213.76,43.2242857 C213.88,42.5842857 213.92,41.9842857 213.92,41.2642857 C213.92,35.6642857 211.08,32.1442857 206.12,32.1442857 C201.68,32.1442857 197.4,36.0242857 197.4,42.3442857 C197.4,48.7842857 201.48,52.5442857 206.68,52.5442857 Z M210.96,40.6642857 L200.68,40.6642857 C201.08,36.9442857 203.48,34.7842857 206.2,34.7842857 C209.16,34.7842857 210.96,36.8242857 210.96,40.6642857 Z M222,52.0642857 L222,39.5842857 C223.32,36.3042857 225.28,35.1442857 226.92,35.1442857 C227.68,35.1442857 228.12,35.2242857 228.68,35.3842857 L229.4,32.5442857 C228.8,32.2642857 228.2,32.1442857 227.32,32.1442857 C225.16,32.1442857 223.16,33.7042857 221.8,36.1442857 L221.68,36.1442857 L221.4,32.6242857 L218.68,32.6242857 L218.68,52.0642857 L222,52.0642857 Z M248.84,57.1042857 L248.84,54.9042857 L229.8,54.9042857 L229.8,57.1042857 L248.84,57.1042857 Z M255.88,52.0642857 L255.88,46.9442857 L259.48,42.7442857 L265.16,52.0642857 L268.76,52.0642857 L261.44,40.4642857 L267.92,32.6242857 L264.2,32.6242857 L256,42.7842857 L255.88,42.7842857 L255.88,23.5842857 L252.6,23.5842857 L252.6,52.0642857 L255.88,52.0642857 Z M274.08,28.6242857 C275.36,28.6242857 276.28,27.7842857 276.28,26.4642857 C276.28,25.1842857 275.36,24.3042857 274.08,24.3042857 C272.8,24.3042857 271.88,25.1842857 271.88,26.4642857 C271.88,27.7842857 272.8,28.6242857 274.08,28.6242857 Z M275.72,52.0642857 L275.72,32.6242857 L272.4,32.6242857 L272.4,52.0642857 L275.72,52.0642857 Z M288.4,52.5442857 C289.72,52.5442857 291.04,52.1842857 292.08,51.7042857 L291.4,49.3442857 C290.6,49.7042857 289.88,49.8242857 289.16,49.8242857 C286.96,49.8242857 286.16,48.4642857 286.16,46.1042857 L286.16,35.3042857 L291.44,35.3042857 L291.44,32.6242857 L286.16,32.6242857 L286.16,26.3842857 L283.4,26.3842857 L283,32.6242857 L279.96,32.8242857 L279.96,35.3042857 L282.84,35.3042857 L282.84,46.0242857 C282.84,49.9042857 284.24,52.5442857 288.4,52.5442857 Z" id="silver_kit" fill="#333333" fill-rule="nonzero"></path>
            <g id="folder">
                <path d="M39.1952339,1.36598157 L43.8047661,6.63401843 C44.5643185,7.50207827 45.6616226,8 46.8150729,8 L92,8 C94.209139,8 96,9.790861 96,12 L96,70 L96,70 L4,70 C1.790861,70 -3.72626139e-15,68.209139 0,66 L0,4 C-2.705415e-16,1.790861 1.790861,2.18216909e-15 4,0 L36.1849271,0 C37.3383774,-1.10006381e-15 38.4356815,0.497921729 39.1952339,1.36598157 Z" id="Path" fill="#FCA65C"></path>
                <path d="M58.1952339,14.3659816 L62.8047661,19.6340184 C63.5643185,20.5020783 64.6616226,21 65.8150729,21 L96.1538462,21 C98.3629852,21 100.153846,22.790861 100.153846,25 L100.153846,70 L100.153846,70 L12,70 C9.790861,70 8,68.209139 8,66 L8,17 C8,14.790861 9.790861,13 12,13 L55.1849271,13 C56.3383774,13 57.4356815,13.4979217 58.1952339,14.3659816 Z" id="Path" fill="#73B0DE" transform="translate(54.076923, 41.500000) scale(-1, 1) translate(-54.076923, -41.500000) "></path>
                <path d="M9,58 L9,70 L4,70 L4.19964034,69.9951047 C6.31603153,69.8910789 8,68.1421954 8,66 L8,66 L8,58 L9,58 Z" id="Combined-Shape" fill="#73B0DE"></path>
            </g>
        </g>
        <g id="trees-icon-label" transform="translate(847.000000, 845.000000)">
            <path d="M130.76,52.48 C131.6,52.48 132.2,52.36 132.68,52.12 L132.24,49.64 C131.92,49.72 131.76,49.72 131.56,49.72 C131.04,49.72 130.6,49.36 130.6,48.32 L130.6,23.52 L127.28,23.52 L127.28,48.08 C127.28,50.88 128.28,52.48 130.76,52.48 Z M145.04,52.48 C149.8,52.48 154.08,48.76 154.08,42.32 C154.08,35.8 149.8,32.08 145.04,32.08 C140.28,32.08 136.04,35.8 136.04,42.32 C136.04,48.76 140.28,52.48 145.04,52.48 Z M145.04,49.72 C141.72,49.72 139.48,46.76 139.48,42.32 C139.48,37.84 141.72,34.84 145.04,34.84 C148.4,34.84 150.64,37.84 150.64,42.32 C150.64,46.76 148.4,49.72 145.04,49.72 Z M165.72,60.96 C171.76,60.96 175.56,57.84 175.56,54.2 C175.56,51 173.28,49.56 168.76,49.56 L165,49.56 C162.4,49.56 161.6,48.68 161.6,47.48 C161.6,46.4 162.12,45.76 162.84,45.16 C163.72,45.6 164.76,45.84 165.72,45.84 C169.68,45.84 172.84,43.24 172.84,39.08 C172.84,37.44 172.2,36 171.28,35.12 L175.24,35.12 L175.24,32.56 L168.48,32.56 C167.76,32.28 166.8,32.08 165.72,32.08 C161.76,32.08 158.4,34.76 158.4,39 C158.4,41.32 159.64,43.2 160.92,44.24 L160.92,44.4 C159.92,45.08 158.8,46.36 158.8,48 C158.8,49.52 159.56,50.56 160.52,51.16 L160.52,51.32 C158.76,52.52 157.68,54.08 157.68,55.72 C157.68,59.08 160.96,60.96 165.72,60.96 Z M165.72,43.6 C163.48,43.6 161.6,41.84 161.6,39 C161.6,36.16 163.44,34.48 165.72,34.48 C168,34.48 169.84,36.2 169.84,39 C169.84,41.84 167.96,43.6 165.72,43.6 Z M166.2,58.64 C162.68,58.64 160.56,57.36 160.56,55.28 C160.56,54.16 161.16,53 162.56,52 C163.4,52.24 164.32,52.32 165.08,52.32 L168.4,52.32 C170.96,52.32 172.32,52.92 172.32,54.72 C172.32,56.72 169.88,58.64 166.2,58.64 Z M181.04,28.56 C182.32,28.56 183.24,27.72 183.24,26.4 C183.24,25.12 182.32,24.24 181.04,24.24 C179.76,24.24 178.84,25.12 178.84,26.4 C178.84,27.72 179.76,28.56 181.04,28.56 Z M182.68,52 L182.68,32.56 L179.36,32.56 L179.36,52 L182.68,52 Z M192.56,52 L192.56,37.92 C194.48,35.96 195.88,34.96 197.84,34.96 C200.4,34.96 201.52,36.48 201.52,40.12 L201.52,52 L204.84,52 L204.84,39.68 C204.84,34.72 203,32.08 198.88,32.08 C196.2,32.08 194.2,33.52 192.36,35.36 L192.24,35.36 L191.96,32.56 L189.24,32.56 L189.24,52 L192.56,52 Z M218.68,52.48 C223.44,52.48 227.72,48.76 227.72,42.32 C227.72,35.8 223.44,32.08 218.68,32.08 C213.92,32.08 209.68,35.8 209.68,42.32 C209.68,48.76 213.92,52.48 218.68,52.48 Z M218.68,49.72 C215.36,49.72 213.12,46.76 213.12,42.32 C213.12,37.84 215.36,34.84 218.68,34.84 C222.04,34.84 224.28,37.84 224.28,42.32 C224.28,46.76 222.04,49.72 218.68,49.72 Z M236.12,52 L236.12,37.92 C237.92,35.92 239.52,34.96 240.96,34.96 C243.44,34.96 244.56,36.48 244.56,40.12 L244.56,52 L247.88,52 L247.88,37.92 C249.68,35.92 251.24,34.96 252.76,34.96 C255.2,34.96 256.36,36.48 256.36,40.12 L256.36,52 L259.68,52 L259.68,39.68 C259.68,34.72 257.76,32.08 253.76,32.08 C251.4,32.08 249.36,33.6 247.36,35.76 C246.56,33.48 244.96,32.08 241.96,32.08 C239.64,32.08 237.64,33.52 235.92,35.36 L235.8,35.36 L235.52,32.56 L232.8,32.56 L232.8,52 L236.12,52 Z M282.2,57.04 L282.2,54.84 L263.16,54.84 L263.16,57.04 L282.2,57.04 Z M291.04,52.48 C295.64,52.48 298.16,49.84 298.16,46.68 C298.16,43.16 295.24,41.84 292.2,40.76 C289.76,39.92 288.08,39.2 288.08,37.44 C288.08,36 289.16,34.64 291.64,34.64 C293.36,34.64 294.76,35.2 296.12,36.2 L297.64,34.28 C296.12,33 294.04,32.08 291.6,32.08 C287.36,32.08 284.88,34.48 284.88,37.6 C284.88,40.8 287.68,42.2 290.6,43.24 L291.038839,43.4008652 C293.0784,44.1571556 294.96,45.0133333 294.96,46.88 C294.96,48.56 293.72,49.88 291.16,49.88 C288.76,49.88 287,49.16 285.32,47.76 L283.8,49.68 C285.6,51.44 288.2,52.48 291.04,52.48 Z M304.4,28.56 C305.68,28.56 306.6,27.72 306.6,26.4 C306.6,25.12 305.68,24.24 304.4,24.24 C303.12,24.24 302.2,25.12 302.2,26.4 C302.2,27.72 303.12,28.56 304.4,28.56 Z M306.04,52 L306.04,32.56 L302.72,32.56 L302.72,52 L306.04,52 Z M316.08,52.48 C316.92,52.48 317.52,52.36 318,52.12 L317.56,49.64 C317.24,49.72 317.08,49.72 316.88,49.72 C316.36,49.72 315.92,49.36 315.92,48.32 L315.92,23.52 L312.6,23.52 L312.6,48.08 C312.6,50.88 313.6,52.48 316.08,52.48 Z M330.88,52 L337.76,32.56 L334.48,32.56 L330.84,43.56 C330.24,45.48 329.6,47.44 329.04,49.32 L328.88,49.32 C328.28,47.44 327.68,45.48 327.08,43.56 L323.44,32.56 L320,32.56 L327,52 L330.88,52 Z M349.36,52.48 C352.04,52.48 354.12,51.68 355.8,50.48 L354.64,48.36 C353.28,49.28 351.64,49.8 349.76,49.8 C346.08,49.8 343.64,47.16 343.36,43.16 L356.44,43.16 C356.56,42.52 356.6,41.92 356.6,41.2 C356.6,35.6 353.76,32.08 348.8,32.08 C344.36,32.08 340.08,35.96 340.08,42.28 C340.08,48.72 344.16,52.48 349.36,52.48 Z M353.64,40.6 L343.36,40.6 C343.76,36.88 346.16,34.72 348.88,34.72 C351.84,34.72 353.64,36.76 353.64,40.6 Z M364.68,52 L364.68,39.52 C366,36.24 367.96,35.08 369.6,35.08 C370.36,35.08 370.8,35.16 371.36,35.32 L372.08,32.48 C371.48,32.2 370.88,32.08 370,32.08 C367.84,32.08 365.84,33.64 364.48,36.08 L364.36,36.08 L364.08,32.56 L361.36,32.56 L361.36,52 L364.68,52 Z M391.52,57.04 L391.52,54.84 L372.48,54.84 L372.48,57.04 L391.52,57.04 Z M398.56,52 L398.56,46.88 L402.16,42.68 L407.84,52 L411.44,52 L404.12,40.4 L410.6,32.56 L406.88,32.56 L398.68,42.72 L398.56,42.72 L398.56,23.52 L395.28,23.52 L395.28,52 L398.56,52 Z M416.76,28.56 C418.04,28.56 418.96,27.72 418.96,26.4 C418.96,25.12 418.04,24.24 416.76,24.24 C415.48,24.24 414.56,25.12 414.56,26.4 C414.56,27.72 415.48,28.56 416.76,28.56 Z M418.4,52 L418.4,32.56 L415.08,32.56 L415.08,52 L418.4,52 Z M431.08,52.48 C432.4,52.48 433.72,52.12 434.76,51.64 L434.08,49.28 C433.28,49.64 432.56,49.76 431.84,49.76 C429.64,49.76 428.84,48.4 428.84,46.04 L428.84,35.24 L434.12,35.24 L434.12,32.56 L428.84,32.56 L428.84,26.32 L426.08,26.32 L425.68,32.56 L422.64,32.76 L422.64,35.24 L425.52,35.24 L425.52,45.96 C425.52,49.84 426.92,52.48 431.08,52.48 Z M440.24,52.48 C441.56,52.48 442.64,51.44 442.64,49.96 C442.64,48.44 441.56,47.4 440.24,47.4 C438.92,47.4 437.84,48.44 437.84,49.96 C437.84,51.44 438.92,52.48 440.24,52.48 Z M452,52.48 C452.84,52.48 453.44,52.36 453.92,52.12 L453.48,49.64 C453.16,49.72 453,49.72 452.8,49.72 C452.28,49.72 451.84,49.36 451.84,48.32 L451.84,23.52 L448.52,23.52 L448.52,48.08 C448.52,50.88 449.52,52.48 452,52.48 Z M465.28,60.96 C471.32,60.96 475.12,57.84 475.12,54.2 C475.12,51 472.84,49.56 468.32,49.56 L464.56,49.56 C461.96,49.56 461.16,48.68 461.16,47.48 C461.16,46.4 461.68,45.76 462.4,45.16 C463.28,45.6 464.32,45.84 465.28,45.84 C469.24,45.84 472.4,43.24 472.4,39.08 C472.4,37.44 471.76,36 470.84,35.12 L474.8,35.12 L474.8,32.56 L468.04,32.56 C467.32,32.28 466.36,32.08 465.28,32.08 C461.32,32.08 457.96,34.76 457.96,39 C457.96,41.32 459.2,43.2 460.48,44.24 L460.48,44.4 C459.48,45.08 458.36,46.36 458.36,48 C458.36,49.52 459.12,50.56 460.08,51.16 L460.08,51.32 C458.32,52.52 457.24,54.08 457.24,55.72 C457.24,59.08 460.52,60.96 465.28,60.96 Z M465.28,43.6 C463.04,43.6 461.16,41.84 461.16,39 C461.16,36.16 463,34.48 465.28,34.48 C467.56,34.48 469.4,36.2 469.4,39 C469.4,41.84 467.52,43.6 465.28,43.6 Z M465.76,58.64 C462.24,58.64 460.12,57.36 460.12,55.28 C460.12,54.16 460.72,53 462.12,52 C462.96,52.24 463.88,52.32 464.64,52.32 L467.96,52.32 C470.52,52.32 471.88,52.92 471.88,54.72 C471.88,56.72 469.44,58.64 465.76,58.64 Z M482.24,60.2 L482.24,53.64 L482.16,50.24 C483.92,51.64 485.76,52.48 487.52,52.48 C491.96,52.48 495.96,48.6 495.96,42 C495.96,35.96 493.24,32.08 488.24,32.08 C486,32.08 483.8,33.32 482.04,34.8 L481.92,34.8 L481.64,32.56 L478.92,32.56 L478.92,60.2 L482.24,60.2 Z M486.96,49.68 C485.68,49.68 484,49.16 482.24,47.68 L482.24,37.52 C484.12,35.76 485.76,34.88 487.4,34.88 C491.04,34.88 492.52,37.72 492.52,42 C492.52,46.8 490.16,49.68 486.96,49.68 Z" id="loginom_silver_kit.lgp" fill="#333333" fill-rule="nonzero"></path>
            <g id="Group">
                <path d="M64,0 C66.209139,-4.05812251e-16 68,1.790861 68,4 L68,66 C68,68.209139 66.209139,70 64,70 L60,70 C62.209139,70 64,68.209139 64,66 L64,66 L64,4 C64,1.790861 62.209139,-4.05812251e-16 60,0 L60,0 L64,0 Z" id="Combined-Shape" fill="#FCA65C"></path>
                <path d="M72,0 C74.209139,-4.05812251e-16 76,1.790861 76,4 L76,66 C76,68.209139 74.209139,70 72,70 L68,70 C70.209139,70 72,68.209139 72,66 L72,66 L72,4 C72,1.790861 70.209139,-4.05812251e-16 68,0 L68,0 L72,0 Z" id="Combined-Shape" fill="#FCA65C"></path>
                <path d="M80,0 C82.209139,-4.05812251e-16 84,1.790861 84,4 L84,66 C84,68.209139 82.209139,70 80,70 L76,70 C78.209139,70 80,68.209139 80,66 L80,66 L80,4 C80,1.790861 78.209139,-4.05812251e-16 76,0 L76,0 L80,0 Z" id="Combined-Shape" fill="#FCA65C"></path>
                <rect id="Rectangle" fill="#73B0DE" x="0" y="0" width="60" height="70" rx="4"></rect>
                <g transform="translate(12.000000, 22.000000)" fill="#F9F9F9" id="Rectangle">
                    <rect x="0" y="0" width="36" height="2" rx="1"></rect>
                    <rect x="0" y="6" width="36" height="2" rx="1"></rect>
                    <rect x="0" y="12" width="36" height="2" rx="1"></rect>
                    <rect x="0" y="18" width="36" height="2" rx="1"></rect>
                    <rect x="0" y="24" width="25" height="2" rx="1"></rect>
                </g>
            </g>
        </g>
        <g id="Arrow/Gray-Circle/L-Shape-Copy" transform="translate(451.000000, 296.500000) rotate(-180.000000) translate(-451.000000, -296.500000) translate(401.000000, 247.000000)">
            <path d="M16,10 L90,10 L90,83" id="Path-4" stroke="#9A9FAF" stroke-width="4" stroke-dasharray="6"></path>
            <g id="Start-point" transform="translate(80.000000, 79.000000)" filter="url(#filter-3)">
                <g transform="translate(10.000000, 10.000000) rotate(90.000000) translate(-10.000000, -10.000000) ">
                    <path d="M10,0 C15.5228475,0 20,4.4771525 20,10 C20,15.5228475 15.5228475,20 10,20 C4.4771525,20 0,15.5228475 0,10 C0,4.4771525 4.4771525,0 10,0 Z M10,6 C7.790861,6 6,7.790861 6,10 C6,12.209139 7.790861,14 10,14 C12.209139,14 14,12.209139 14,10 C14,7.790861 12.209139,6 10,6 Z" id="Shape" fill="#F7931E"></path>
                </g>
            </g>
            <g id="Start-point" filter="url(#filter-4)">
                <g transform="translate(10.000000, 10.000000) rotate(90.000000) translate(-10.000000, -10.000000) ">
                    <path d="M10,0 C15.5228475,0 20,4.4771525 20,10 C20,15.5228475 15.5228475,20 10,20 C4.4771525,20 0,15.5228475 0,10 C0,4.4771525 4.4771525,0 10,0 Z M10,6 C7.790861,6 6,7.790861 6,10 C6,12.209139 7.790861,14 10,14 C12.209139,14 14,12.209139 14,10 C14,7.790861 12.209139,6 10,6 Z" id="Shape" fill="#F7931E"></path>
                </g>
            </g>
        </g>
        <g id="Arrow/Gray-Circle/L-Shape-Copy" transform="translate(613.000000, 427.500000) rotate(-180.000000) translate(-613.000000, -427.500000) translate(563.000000, 378.000000)">
            <path d="M16,10 L90,10 L90,83" id="Path-4" stroke="#9A9FAF" stroke-width="4" stroke-dasharray="6"></path>
            <g id="Start-point" transform="translate(80.000000, 79.000000)" filter="url(#filter-5)">
                <g transform="translate(10.000000, 10.000000) rotate(90.000000) translate(-10.000000, -10.000000) ">
                    <path d="M10,0 C15.5228475,0 20,4.4771525 20,10 C20,15.5228475 15.5228475,20 10,20 C4.4771525,20 0,15.5228475 0,10 C0,4.4771525 4.4771525,0 10,0 Z M10,6 C7.790861,6 6,7.790861 6,10 C6,12.209139 7.790861,14 10,14 C12.209139,14 14,12.209139 14,10 C14,7.790861 12.209139,6 10,6 Z" id="Shape" fill="#F7931E"></path>
                </g>
            </g>
            <g id="Start-point" filter="url(#filter-6)">
                <g transform="translate(10.000000, 10.000000) rotate(90.000000) translate(-10.000000, -10.000000) ">
                    <path d="M10,0 C15.5228475,0 20,4.4771525 20,10 C20,15.5228475 15.5228475,20 10,20 C4.4771525,20 0,15.5228475 0,10 C0,4.4771525 4.4771525,0 10,0 Z M10,6 C7.790861,6 6,7.790861 6,10 C6,12.209139 7.790861,14 10,14 C12.209139,14 14,12.209139 14,10 C14,7.790861 12.209139,6 10,6 Z" id="Shape" fill="#F7931E"></path>
                </g>
            </g>
        </g>
        <g id="Arrow/Gray-Circle/L-Shape-Copy" transform="translate(775.000000, 842.000000) rotate(-180.000000) translate(-775.000000, -842.000000) translate(725.000000, 795.000000)">
            <path d="M16,10 L90,10 L90,78" id="Path-4" stroke="#9A9FAF" stroke-width="4" stroke-dasharray="6"></path>
            <g id="Start-point" transform="translate(80.000000, 74.000000)" filter="url(#filter-7)">
                <g transform="translate(10.000000, 10.000000) rotate(90.000000) translate(-10.000000, -10.000000) ">
                    <path d="M10,0 C15.5228475,0 20,4.4771525 20,10 C20,15.5228475 15.5228475,20 10,20 C4.4771525,20 0,15.5228475 0,10 C0,4.4771525 4.4771525,0 10,0 Z M10,6 C7.790861,6 6,7.790861 6,10 C6,12.209139 7.790861,14 10,14 C12.209139,14 14,12.209139 14,10 C14,7.790861 12.209139,6 10,6 Z" id="Shape" fill="#F7931E"></path>
                </g>
            </g>
            <g id="Start-point" filter="url(#filter-8)">
                <g transform="translate(10.000000, 10.000000) rotate(90.000000) translate(-10.000000, -10.000000) ">
                    <path d="M10,0 C15.5228475,0 20,4.4771525 20,10 C20,15.5228475 15.5228475,20 10,20 C4.4771525,20 0,15.5228475 0,10 C0,4.4771525 4.4771525,0 10,0 Z M10,6 C7.790861,6 6,7.790861 6,10 C6,12.209139 7.790861,14 10,14 C12.209139,14 14,12.209139 14,10 C14,7.790861 12.209139,6 10,6 Z" id="Shape" fill="#F7931E"></path>
                </g>
            </g>
        </g>
        <g id="Arrow/Gray-Circle/L-Shape-Copy" transform="translate(775.000000, 556.000000) rotate(-180.000000) translate(-775.000000, -556.000000) translate(725.000000, 509.000000)">
            <path d="M16,10 L90,10 L90,78" id="Path-4" stroke="#9A9FAF" stroke-width="4" stroke-dasharray="6"></path>
            <g id="Start-point" transform="translate(80.000000, 74.000000)" filter="url(#filter-9)">
                <g transform="translate(10.000000, 10.000000) rotate(90.000000) translate(-10.000000, -10.000000) ">
                    <path d="M10,0 C15.5228475,0 20,4.4771525 20,10 C20,15.5228475 15.5228475,20 10,20 C4.4771525,20 0,15.5228475 0,10 C0,4.4771525 4.4771525,0 10,0 Z M10,6 C7.790861,6 6,7.790861 6,10 C6,12.209139 7.790861,14 10,14 C12.209139,14 14,12.209139 14,10 C14,7.790861 12.209139,6 10,6 Z" id="Shape" fill="#F7931E"></path>
                </g>
            </g>
            <g id="Start-point" filter="url(#filter-10)">
                <g transform="translate(10.000000, 10.000000) rotate(90.000000) translate(-10.000000, -10.000000) ">
                    <path d="M10,0 C15.5228475,0 20,4.4771525 20,10 C20,15.5228475 15.5228475,20 10,20 C4.4771525,20 0,15.5228475 0,10 C0,4.4771525 4.4771525,0 10,0 Z M10,6 C7.790861,6 6,7.790861 6,10 C6,12.209139 7.790861,14 10,14 C12.209139,14 14,12.209139 14,10 C14,7.790861 12.209139,6 10,6 Z" id="Shape" fill="#F7931E"></path>
                </g>
            </g>
        </g>
        <g id="Arrow/Gray-Circle/L-Shape-Copy" transform="translate(618.000000, 618.000000) rotate(-180.000000) translate(-618.000000, -618.000000) translate(573.000000, 477.000000)">
            <path d="M16,10 L90,10 L90,282" id="Path-4" stroke="#9A9FAF" stroke-width="4" stroke-dasharray="6"></path>
            <g id="Start-point" filter="url(#filter-11)">
                <g transform="translate(10.000000, 10.000000) rotate(90.000000) translate(-10.000000, -10.000000) ">
                    <path d="M10,0 C15.5228475,0 20,4.4771525 20,10 C20,15.5228475 15.5228475,20 10,20 C4.4771525,20 0,15.5228475 0,10 C0,4.4771525 4.4771525,0 10,0 Z M10,6 C7.790861,6 6,7.790861 6,10 C6,12.209139 7.790861,14 10,14 C12.209139,14 14,12.209139 14,10 C14,7.790861 12.209139,6 10,6 Z" id="Shape" fill="#F7931E"></path>
                </g>
            </g>
        </g>
    </g>
</svg>